<?xml version="1.0" encoding="utf-8"?>
<!-- Generator: Adobe Illustrator 24.0.0, SVG Export Plug-In . SVG Version: 6.00 Build 0)  -->
<svg version="1.1" id="Ebene_1" xmlns="http://www.w3.org/2000/svg" xmlns:xlink="http://www.w3.org/1999/xlink" x="0px" y="0px"
	 viewBox="0 0 652.2 142" style="enable-background:new 0 0 652.2 142;" xml:space="preserve">
<style type="text/css">
	.st0{fill:#3B8047;}
	.st1{enable-background:new    ;}
</style>
<path class="st0" d="M-7866,72H8517 M101.4,22.6l-6.8,67.1L93,104.4c-0.3,1.4-1.2,2.7-3.8,3.4c-0.7,0.2-1.4,0.4-2.2,0.5
	c-1.4,0.3-2.8-0.8-2.6-2.3l5.9-77c0.2-2.1-1.4-3.9-3.5-4h-0.4c-2.1-0.2-3.9,1.4-4,3.5l-6,78.8c-0.1,1.7-1.4,3-3.1,3.2
	c-1,0.1-2.1,0.2-3.1,0.3c-1.5,0.1-2.8-1.1-2.8-2.6l1.6-82c0.1-2.1-1.6-3.8-3.6-3.9H65c-2.1-0.1-3.8,1.6-3.9,3.6l-1.6,82.6
	c-0.1,1.6-1.4,2.9-2.9,2.9h-3.3c-1.6,0-2.9-1.3-3-2.9l-1.9-76.8c-0.1-2.1-1.8-3.7-3.9-3.6h-0.4c-2.1,0.1-3.7,1.8-3.6,3.9l1.9,76.2
	c0,1.5-1.2,2.7-2.8,2.6l-3-0.3c-1.7-0.2-3-1.5-3.1-3.2l-5.8-77.9c-0.2-2.1-2-3.6-4-3.5h-0.4c-2.1,0.2-3.6,2-3.5,4l5.7,76.1
	c0.1,1.5-1.2,2.6-2.6,2.3l-2.4-0.6c-2.7-0.8-3.5-2.1-3.8-3.6c-0.2-2.1-1.4-14-1.5-14.4c-1.5-14.6-6.7-65.8-6.7-65.8
	c-0.1-4.9-0.2-7,4.8-9.5C26.8,7.7,44,14.1,44,14.1l8.9-3.4C64.8,6.4,82,6.8,94.6,14.1C97,15.5,101.8,17.8,101.4,22.6 M92.2,119
	c0,0,0,3.4-0.1,5.1c-0.1,2.1-0.1,4.6-4.2,5.6c-21.6,5.7-44.3,5.5-66,0c-4.2-1.1-4.1-3.3-4.2-5.3c-0.1-1.7-0.1-5.4-0.1-5.5
	c-0.1-2.1,1.5-3.3,3.6-2.9c22.2,4.4,45.1,4.4,67.3,0C90.6,115.6,92.3,116.9,92.2,119 M108.1,13.9C105.5,10.3,97,5.9,91,3.5
	C75.5-2.1,57.9-0.6,44.1,5.7l-1.8-0.5C30.6,1.4,16.7,3.4,8.7,7.7c-5,2.7-7.3,4.9-8.1,8.4c-0.5,1.4-0.8,3.9-0.4,8.4
	c0,0.2,0,0.3,0.1,0.5c1.2,14.2,9,84.2,9.1,84.3c1.3,13.9-0.7,19.5,2.1,23.2c0.2,0.3,0.4,0.5,0.6,0.7c1.2,1.2,2.9,2.2,5.6,3.2
	c0.5,0.2,1.1,0.4,1.6,0.6c2.2,0.8,4.6,1.5,7.1,2.1c9.4,2.2,19.4,2.8,28.5,2.8s19.2-0.6,28.5-2.8c2.5-0.6,5-1.3,7.1-2.1
	c0.5-0.2,1.1-0.4,1.6-0.6c2.7-1.1,4.5-2.1,5.6-3.2c0.2-0.2,0.4-0.4,0.6-0.7c2.8-3.7,0.9-9.3,2.1-23.2c0-0.1,7.9-70.1,9.1-84.3
	c0-0.2,0-0.4,0.1-0.5C110.3,17,109.1,15.4,108.1,13.9"/>
<g class="st1">
	<path class="st0" d="M119,115.5c-3.3,0-5.6-1.1-7-3.3c-1.4-2.2-1.4-4.9,0.1-8.1l30-65.6c1.2-2.7,2.7-4.6,4.4-5.8
		c1.7-1.2,3.7-1.8,6-1.8c2.3,0,4.3,0.6,6,1.8c1.7,1.2,3.2,3.1,4.3,5.8l30.2,65.6c1.5,3.3,1.5,6,0.2,8.1c-1.4,2.1-3.6,3.2-6.6,3.2
		c-2.7,0-4.7-0.6-6.1-1.9c-1.4-1.2-2.7-3.2-3.8-5.9l-4.9-11.2h-38.5l-4.8,11.2c-1.2,2.7-2.4,4.7-3.7,5.9
		C123.3,114.8,121.4,115.5,119,115.5z M152.3,51.2l-13,31.1h26.4l-13.2-31.1H152.3z"/>
	<path class="st0" d="M213.9,115.5c-3,0-5.2-0.8-6.8-2.5c-1.6-1.6-2.3-3.9-2.3-6.9V41.1c0-6.2,3.1-9.2,9.2-9.2h28.4
		c9.2,0,16.3,2.3,21.3,7c5,4.6,7.5,11.1,7.5,19.4c0,8.3-2.5,14.7-7.5,19.4c-5,4.7-12.1,7-21.3,7h-19.5v21.4c0,3-0.8,5.3-2.3,6.9
		S216.9,115.5,213.9,115.5z M222.9,70.6h16.5c9.6,0,14.4-4.1,14.4-12.4c0-8.1-4.8-12.2-14.4-12.2h-16.5V70.6z"/>
	<path class="st0" d="M291.6,115.5c-3,0-5.2-0.8-6.8-2.5c-1.6-1.6-2.3-3.9-2.3-6.9V40.2c0-6.2,3-9.4,9.1-9.4c6,0,9,3.1,9,9.4v65.9
		C300.6,112.3,297.6,115.5,291.6,115.5z"/>
	<path class="st0" d="M326.4,115.5c-3,0-5.2-0.8-6.8-2.5c-1.6-1.6-2.3-3.9-2.3-6.9v-66c0-3,0.8-5.2,2.3-6.8c1.6-1.6,3.8-2.4,6.8-2.4
		c6,0,9,3.1,9,9.2v27.7h0.2l31.1-32.5c1.3-1.4,2.7-2.5,4.2-3.2c1.4-0.7,3.1-1.1,5-1.1c2.7,0,4.6,0.7,5.9,2.1c1.2,1.4,1.8,3.1,1.6,5
		c-0.2,1.9-1,3.6-2.6,5.2l-27.5,28.1l29.1,31c1.8,2,2.7,3.9,2.8,6c0,2-0.6,3.7-2,5.1c-1.4,1.4-3.4,2-6,2c-2.3,0-4.1-0.5-5.4-1.4
		c-1.4-0.9-2.9-2.3-4.5-4.1l-31.6-33.2h-0.2v29.4c0,3-0.8,5.3-2.3,6.9S329.3,115.5,326.4,115.5z"/>
	<path class="st0" d="M432.9,115.7c-8.1,0-15.2-1.8-21.4-5.3c-6.1-3.5-10.9-8.5-14.3-14.9c-3.4-6.4-5.1-13.8-5.1-22.4
		c0-8.6,1.7-16.1,5.1-22.4c3.4-6.4,8.1-11.3,14.2-14.8s13.2-5.3,21.4-5.3c8.2,0,15.3,1.8,21.5,5.3c6.1,3.5,10.9,8.4,14.3,14.8
		c3.4,6.4,5.1,13.8,5.1,22.3c0,8.6-1.7,16.1-5.1,22.5c-3.4,6.4-8.2,11.4-14.3,14.9C448.2,113.9,441.1,115.7,432.9,115.7z
		 M432.9,100.2c6.9,0,12.2-2.4,16.1-7.2c3.9-4.8,5.8-11.4,5.8-20c0-8.6-1.9-15.2-5.7-20c-3.8-4.7-9.2-7.1-16.1-7.1
		c-6.8,0-12.1,2.4-16,7.1c-3.9,4.7-5.8,11.4-5.8,20c0,8.5,1.9,15.2,5.8,20C420.8,97.8,426.1,100.2,432.9,100.2z"/>
	<path class="st0" d="M527.8,115.7c-8.9,0-16.5-1.8-22.8-5.3s-11.2-8.4-14.6-14.8c-3.4-6.4-5.1-13.9-5.1-22.5
		c0-8.6,1.7-16.1,5.1-22.4c3.4-6.4,8.3-11.3,14.6-14.8s13.9-5.3,22.8-5.3c3.9,0,7.9,0.5,11.9,1.5c4,1,7.5,2.4,10.5,4.1
		c2.4,1.4,3.9,3.2,4.4,5.3c0.5,2.1,0.4,4.1-0.5,6c-0.9,1.9-2.3,3.2-4.2,4c-1.9,0.8-4,0.5-6.3-0.8c-2.3-1.4-4.8-2.4-7.4-3
		c-2.6-0.6-5.2-0.9-7.8-0.9c-7.9,0-13.8,2.3-17.8,6.8c-4,4.6-6,11.1-6,19.6c0,8.5,2,15.1,6,19.7c4,4.6,10,6.9,17.8,6.9
		c2.5,0,5.1-0.3,7.7-0.9c2.6-0.6,5.1-1.6,7.5-2.9c2.5-1.3,4.7-1.6,6.6-0.9c1.9,0.7,3.3,2,4.2,3.7c0.9,1.8,1.1,3.7,0.6,5.7
		c-0.5,2.1-1.8,3.8-4,5.1c-3,2-6.5,3.5-10.7,4.6C536.1,115.1,531.9,115.7,527.8,115.7z"/>
	<path class="st0" d="M576.9,115.5c-3,0-5.2-0.8-6.8-2.5c-1.6-1.6-2.3-3.9-2.3-6.9V40.2c0-6.2,3-9.4,9.1-9.4c6,0,9,3.1,9,9.4V65
		h38.4V40.2c0-6.2,3-9.4,9-9.4c6.1,0,9.1,3.1,9.1,9.4v65.9c0,3-0.8,5.3-2.3,6.9c-1.6,1.6-3.8,2.5-6.8,2.5c-2.9,0-5.1-0.8-6.7-2.5
		c-1.6-1.6-2.3-3.9-2.3-6.9v-26h-38.4v26C585.9,112.3,582.9,115.5,576.9,115.5z"/>
</g>
</svg>
