<?xml version="1.0" encoding="utf-8"?>
<!-- Generator: Adobe Illustrator 24.0.0, SVG Export Plug-In . SVG Version: 6.00 Build 0)  -->
<svg version="1.1" id="Ebene_1" xmlns="http://www.w3.org/2000/svg" xmlns:xlink="http://www.w3.org/1999/xlink" x="0px" y="0px"
	 viewBox="0 0 652.2 142" style="enable-background:new 0 0 652.2 142;" xml:space="preserve">
<style type="text/css">
	.st0{fill:#3B8047;}
	.st1{font-family:'Nunito-ExtraBold';}
	.st2{font-size:117.022px;}
</style>
<path class="st0" d="M-7866,72H8517 M101.4,22.6l-6.8,67.1L93,104.4c-0.3,1.4-1.2,2.7-3.8,3.4c-0.7,0.2-1.4,0.4-2.2,0.5
	c-1.4,0.3-2.8-0.8-2.6-2.3l5.9-77c0.2-2.1-1.4-3.9-3.5-4h-0.4c-2.1-0.2-3.9,1.4-4,3.5l-6,78.8c-0.1,1.7-1.4,3-3.1,3.2
	c-1,0.1-2.1,0.2-3.1,0.3c-1.5,0.1-2.8-1.1-2.8-2.6l1.6-82c0.1-2.1-1.6-3.8-3.6-3.9H65c-2.1-0.1-3.8,1.6-3.9,3.6l-1.6,82.6
	c-0.1,1.6-1.4,2.9-2.9,2.9h-3.3c-1.6,0-2.9-1.3-3-2.9l-1.9-76.8c-0.1-2.1-1.8-3.7-3.9-3.6h-0.4c-2.1,0.1-3.7,1.8-3.6,3.9l1.9,76.2
	c0,1.5-1.2,2.7-2.8,2.6l-3-0.3c-1.7-0.2-3-1.5-3.1-3.2l-5.8-77.9c-0.2-2.1-2-3.6-4-3.5h-0.4c-2.1,0.2-3.6,2-3.5,4l5.7,76.1
	c0.1,1.5-1.2,2.6-2.6,2.3l-2.4-0.6c-2.7-0.8-3.5-2.1-3.8-3.6c-0.2-2.1-1.4-14-1.5-14.4c-1.5-14.6-6.7-65.8-6.7-65.8
	c-0.1-4.9-0.2-7,4.8-9.5C26.8,7.7,44,14.1,44,14.1l8.9-3.4C64.8,6.4,82,6.8,94.6,14.1C97,15.5,101.8,17.8,101.4,22.6 M92.2,119
	c0,0,0,3.4-0.1,5.1c-0.1,2.1-0.1,4.6-4.2,5.6c-21.6,5.7-44.3,5.5-66,0c-4.2-1.1-4.1-3.3-4.2-5.3c-0.1-1.7-0.1-5.4-0.1-5.5
	c-0.1-2.1,1.5-3.3,3.6-2.9c22.2,4.4,45.1,4.4,67.3,0C90.6,115.6,92.3,116.9,92.2,119 M108.1,13.9C105.5,10.3,97,5.9,91,3.5
	C75.5-2.1,57.9-0.6,44.1,5.7l-1.8-0.5C30.6,1.4,16.7,3.4,8.7,7.7c-5,2.7-7.3,4.9-8.1,8.4c-0.5,1.4-0.8,3.9-0.4,8.4
	c0,0.2,0,0.3,0.1,0.5c1.2,14.2,9,84.2,9.1,84.3c1.3,13.9-0.7,19.5,2.1,23.2c0.2,0.3,0.4,0.5,0.6,0.7c1.2,1.2,2.9,2.2,5.6,3.2
	c0.5,0.2,1.1,0.4,1.6,0.6c2.2,0.8,4.6,1.5,7.1,2.1c9.4,2.2,19.4,2.8,28.5,2.8s19.2-0.6,28.5-2.8c2.5-0.6,5-1.3,7.1-2.1
	c0.5-0.2,1.1-0.4,1.6-0.6c2.7-1.1,4.5-2.1,5.6-3.2c0.2-0.2,0.4-0.4,0.6-0.7c2.8-3.7,0.9-9.3,2.1-23.2c0-0.1,7.9-70.1,9.1-84.3
	c0-0.2,0-0.4,0.1-0.5C110.3,17,109.1,15.4,108.1,13.9"/>
<text transform="matrix(1 0 0 1 108.3751 114.4004)" class="st0 st1 st2">APIKOCH</text>
</svg>
